<?xml version="1.0" standalone="no"?>
<!DOCTYPE svg PUBLIC "-//W3C//DTD SVG 20010904//EN"
 "http://www.w3.org/TR/2001/REC-SVG-20010904/DTD/svg10.dtd">
<svg version="1.0" xmlns="http://www.w3.org/2000/svg"
 width="3450.000000pt" height="600.000000pt" viewBox="0 0 3450.000000 600.000000"
 preserveAspectRatio="xMidYMid meet">

<g transform="translate(0.000000,600.000000) scale(0.100000,-0.100000)"
fill="#000000" stroke="none">
<path d="M23752 5485 c-103 -29 -171 -100 -192 -199 -7 -35 -9 -760 -8 -2336
l3 -2285 23 -43 c46 -86 150 -130 285 -119 115 10 192 68 228 172 12 34 14
397 14 2310 l0 2270 -23 56 c-57 142 -191 213 -330 174z"/>
<path d="M561 5134 c-105 -28 -166 -87 -199 -193 -16 -52 -17 -195 -17 -2136
0 -2002 1 -2082 19 -2137 32 -99 112 -156 230 -165 106 -9 199 33 249 110 57
87 57 95 57 1066 l0 891 1210 0 1209 0 3 -927 c3 -697 7 -937 16 -964 36 -107
128 -169 261 -177 148 -8 241 54 282 188 19 64 19 98 17 2135 l-3 2070 -24 59
c-46 115 -142 187 -248 187 -119 0 -211 -57 -266 -166 -33 -66 -37 -177 -37
-1056 l0 -869 -1210 0 -1210 0 0 873 c0 558 -4 895 -11 937 -20 126 -75 213
-162 254 -70 33 -102 36 -166 20z"/>
<path d="M27924 5135 c-118 -25 -197 -85 -240 -180 -39 -84 -47 -151 -30 -235
37 -175 159 -273 341 -273 182 0 304 99 341 274 21 103 0 200 -63 291 -65 96
-222 151 -349 123z"/>
<path d="M11734 5089 c-70 -9 -135 -38 -171 -77 -57 -62 -53 85 -53 -2216 l0
-2120 23 -46 c28 -56 98 -105 170 -120 36 -7 328 -10 947 -8 826 3 898 4 932
20 85 40 142 138 141 242 -1 34 -10 67 -34 114 -40 77 -100 124 -179 141 -34
7 -285 11 -750 11 l-700 0 0 760 0 760 668 0 c756 0 730 -2 801 75 50 54 76
135 66 203 -16 105 -61 169 -153 214 l-67 33 -657 3 -658 3 0 744 0 745 728 0
c486 0 740 4 766 11 89 25 166 141 169 254 1 55 -29 134 -66 173 -30 33 -101
67 -165 81 -62 13 -1658 14 -1758 0z"/>
<path d="M8571 4973 c-64 -23 -132 -95 -154 -162 -15 -47 -17 -103 -17 -466
l0 -413 -177 -4 c-150 -3 -183 -6 -213 -22 -82 -43 -109 -88 -117 -190 -7 -95
9 -151 57 -197 50 -48 101 -60 293 -66 l157 -6 0 -1372 c0 -1532 -4 -1442 69
-1508 55 -49 100 -62 216 -62 117 1 171 21 229 85 70 77 66 -6 66 1502 l0
1358 108 0 c229 1 313 30 365 130 24 47 28 64 25 115 -7 108 -63 188 -155 221
-25 9 -89 13 -190 14 l-152 0 -3 413 c-4 470 -5 473 -87 557 -80 82 -211 111
-320 73z"/>
<path d="M5880 3973 c-154 -17 -398 -86 -535 -153 -451 -219 -716 -630 -826
-1285 -52 -309 -18 -690 92 -1027 37 -113 129 -308 191 -403 204 -315 520
-509 943 -579 440 -73 770 32 1085 345 l97 96 5 -151 c6 -170 15 -204 71 -253
50 -44 99 -58 202 -58 117 0 174 26 220 100 l30 48 3 1548 c2 1538 2 1548 -18
1602 -35 94 -145 176 -236 177 -73 0 -141 -27 -194 -78 -59 -58 -69 -90 -77
-244 l-6 -117 -91 80 c-273 240 -549 361 -816 357 -58 -1 -121 -3 -140 -5z
m320 -524 c383 -94 613 -391 703 -909 30 -178 30 -472 -1 -650 -78 -454 -246
-722 -534 -854 -235 -108 -533 -103 -773 13 -320 153 -497 491 -545 1041 -12
131 -8 227 16 400 79 560 348 895 779 969 33 6 71 13 85 15 48 8 185 -5 270
-25z"/>
<path d="M14325 3968 c-104 -38 -152 -104 -165 -230 -10 -98 4 -142 63 -199
20 -18 234 -301 477 -627 298 -402 438 -597 432 -605 -271 -350 -1036 -1380
-1064 -1434 -31 -61 -38 -84 -38 -131 0 -77 15 -126 52 -168 81 -91 255 -97
394 -12 52 31 84 73 522 690 257 362 469 657 472 657 3 0 218 -292 479 -649
260 -357 493 -667 516 -689 48 -44 89 -59 186 -68 171 -15 292 92 277 248 -12
124 -30 150 -1120 1556 -7 8 126 189 433 590 244 318 465 605 491 638 62 77
84 145 69 215 -24 111 -70 174 -153 210 -96 41 -202 18 -303 -65 -22 -18 -227
-283 -455 -589 -228 -305 -417 -555 -420 -555 -3 0 -192 249 -420 554 -228
305 -419 555 -423 555 -5 0 -32 21 -61 46 -28 26 -65 53 -83 60 -38 16 -115
17 -158 2z"/>
<path d="M18595 3974 c-132 -19 -231 -38 -295 -55 -519 -140 -855 -486 -1013
-1044 -116 -410 -122 -834 -18 -1247 165 -650 559 -1015 1196 -1107 129 -19
336 -24 469 -12 376 35 581 132 673 319 29 60 31 105 8 172 -30 85 -106 151
-173 152 -37 0 -255 -68 -316 -99 -179 -91 -392 -117 -603 -74 -432 88 -677
408 -759 988 -54 388 30 837 208 1110 151 232 396 370 709 398 127 12 316 -28
449 -95 61 -31 178 -64 258 -74 59 -8 123 6 165 36 36 26 84 110 98 174 11 47
9 55 -16 112 -73 163 -274 268 -625 327 -94 16 -356 28 -415 19z"/>
<path d="M21425 3974 c-94 -14 -288 -59 -367 -85 -416 -136 -731 -436 -899
-856 -99 -248 -163 -575 -162 -833 1 -313 88 -703 213 -950 108 -213 293 -417
485 -532 278 -167 645 -239 1036 -204 479 44 813 170 1035 391 87 87 174 220
174 267 0 77 -63 175 -135 211 -87 44 -154 26 -310 -83 -266 -185 -334 -224
-485 -278 -140 -49 -239 -65 -395 -65 -514 0 -863 223 -999 638 -31 94 -66
278 -66 347 l0 48 1138 2 1137 3 42 22 c52 28 86 72 109 141 21 67 15 207 -16
387 -127 731 -482 1190 -1053 1365 -165 51 -380 79 -482 64z m319 -528 c185
-47 336 -142 449 -281 60 -75 148 -252 181 -365 23 -81 47 -212 61 -327 l6
-53 -947 0 -947 0 7 78 c8 104 48 290 81 382 123 341 356 532 720 590 99 15
277 4 389 -24z"/>
<path d="M25840 3973 c-500 -78 -794 -252 -948 -558 -99 -199 -127 -450 -68
-608 101 -269 394 -506 911 -737 403 -179 600 -292 728 -418 74 -73 112 -129
132 -194 15 -51 0 -119 -46 -211 -91 -180 -323 -288 -614 -287 -252 0 -462 75
-767 272 -151 97 -254 148 -299 148 -98 0 -195 -73 -218 -165 -20 -81 -14
-126 28 -212 148 -294 513 -459 1094 -494 337 -21 633 26 876 137 184 85 339
231 425 401 93 185 134 462 92 608 -71 241 -293 456 -676 654 -109 56 -556
251 -576 251 -17 0 -275 137 -336 178 -132 89 -214 189 -232 281 -8 46 10 153
37 209 31 67 97 128 180 167 93 44 167 63 302 77 228 24 438 -41 628 -194 40
-32 109 -77 155 -100 70 -35 94 -42 161 -46 48 -3 93 0 116 8 81 27 153 128
156 217 1 21 -7 61 -18 88 -90 231 -333 389 -737 479 -201 45 -391 64 -486 49z"/>
<path d="M27886 3960 c-58 -23 -109 -69 -139 -125 l-22 -40 -3 -1548 c-2
-1117 1 -1560 9 -1590 16 -60 80 -121 148 -141 119 -35 248 -12 317 58 79 79
74 -37 74 1645 0 1621 2 1557 -54 1641 -70 106 -208 147 -330 100z"/>
<path d="M30215 3965 c-246 -40 -473 -126 -651 -245 -169 -114 -353 -329 -454
-529 -129 -259 -223 -665 -223 -971 -1 -390 125 -838 318 -1130 62 -95 249
-282 340 -342 211 -137 440 -212 731 -238 139 -13 280 -3 445 30 639 130 1028
596 1153 1385 41 257 39 367 -8 630 -114 629 -396 1049 -850 1266 -264 126
-572 181 -801 144z m372 -515 c411 -97 647 -426 724 -1010 36 -277 -11 -662
-111 -916 -143 -360 -433 -564 -801 -565 -359 0 -637 167 -792 476 -130 261
-195 665 -157 980 69 579 300 915 706 1026 155 42 277 45 431 9z"/>
<path d="M32681 3969 c-49 -15 -106 -54 -134 -91 -55 -76 -52 23 -52 -1658 l0
-1555 22 -41 c47 -89 112 -119 253 -119 77 1 103 5 135 22 53 28 89 67 117
128 l23 50 6 955 c4 829 7 964 21 1020 95 387 313 591 751 704 226 59 329 151
329 294 0 128 -74 239 -188 282 -49 18 -71 21 -134 16 -117 -8 -256 -62 -381
-147 -109 -73 -259 -246 -351 -403 -15 -25 -32 -46 -37 -46 -4 0 -11 80 -13
178 -4 153 -8 185 -28 236 -26 69 -78 129 -134 158 -47 24 -153 33 -205 17z"/>
</g>
</svg>
